<svg xmlns="http://www.w3.org/2000/svg" viewBox="0 0 123.6 123.6"><defs><style>.cls-1,.cls-2,.cls-3{fill:none;}.cls-2,.cls-3{stroke:#ea581d;stroke-linejoin:round;}.cls-2{stroke-width:12px;}.cls-3{stroke-linecap:round;stroke-width:8px;}</style></defs><g id="Слой_6" data-name="Слой 6"><rect class="cls-1" width="123.6" height="123.6"/></g><g id="Слой_8" data-name="Слой 8"><path class="cls-2" d="M29.61,55.78V41.53a32.29,32.29,0,0,1,32.2-32.2h0A32.29,32.29,0,0,1,94,41.53V55.78"/><path class="cls-3" d="M6.78,62.52l15.58,53a4.42,4.42,0,0,0,4.08,3.13H97.19a4.43,4.43,0,0,0,4.08-3.13l15.58-53c1.13-3.24-1-6.74-4.09-6.74H10.87C7.78,55.78,5.65,59.28,6.78,62.52Z"/><line class="cls-3" x1="82.83" y1="74" x2="25.17" y2="74"/><line class="cls-3" x1="64.14" y1="92" x2="32.03" y2="92"/><path class="cls-3" d="M30.5,68.68l11.83,37.75"/><path class="cls-3" d="M49.94,68.68l9.58,30.59"/><path class="cls-3" d="M71.29,68.68l3.52,11.26"/></g></svg>