<svg xmlns="http://www.w3.org/2000/svg" viewBox="0 0 571.24 230.85"><defs><style>.cls-1,.cls-2{fill:#ea581d;}.cls-2{font-size:120px;font-family:Cambria-Bold, Cambria;font-weight:700;letter-spacing:-0.03em;}.cls-3{font-size:115px;}</style></defs><g id="Слой_4" data-name="Слой 4"><polygon class="cls-1" points="117.68 128.02 135.09 102.35 152.85 102.35 196.49 166.72 117.68 194.47 228.95 194.47 237.91 181.25 169.39 80.18 135.09 80.18 186.74 47.34 186.75 47.34 57.05 77.23 9.49 147.37 61.17 139.17 61.22 139.21 41.68 168.03 0 174.64 32.72 181.25 32.72 181.25 27.01 202.67 41.68 194.47 96.38 194.47 94.42 178.05 74.14 166.72 100.37 128.02 117.86 128.02 117.68 128.02"/></g><g id="Слой_3" data-name="Слой 3"><text class="cls-2" transform="translate(193.79 99.99)">Game<tspan x="0" y="95" xml:space="preserve">  </tspan><tspan class="cls-3" x="46.85" y="95">Hoard</tspan></text></g></svg>